<svg width="315" height="74" viewBox="0 0 315 74" fill="none" xmlns="http://www.w3.org/2000/svg">
<ellipse cx="36.9652" cy="43.6572" rx="36.9652" ry="29.6359" fill="white"/>
<path d="M33.7786 40.0766C33.7786 55.3558 25.9316 63.7331 16.252 63.7331C6.57227 63.7331 0 55.3558 0 40.0766C0 24.7974 16.252 0 16.252 0C19.7573 -1.54744e-06 33.7786 24.7974 33.7786 40.0766Z" fill="white"/>
<path d="M73.9305 40.0766C73.9305 55.3558 66.0835 63.7331 56.4038 63.7331C46.7242 63.7331 40.1519 55.3558 40.1519 40.0766C40.1519 24.7974 56.4038 0 56.4038 0C59.2718 -1.54744e-06 73.9305 24.7974 73.9305 40.0766Z" fill="white"/>
<path fill-rule="evenodd" clip-rule="evenodd" d="M7.01065 43.0266C9.51168 38.2601 14.1863 35.0532 19.5403 35.0532C24.8943 35.0532 29.569 38.2601 32.07 43.0266C29.569 47.7932 24.8943 51.0001 19.5403 51.0001C14.1863 51.0001 9.51168 47.7932 7.01065 43.0266Z" fill="white"/>
<path fill-rule="evenodd" clip-rule="evenodd" d="M41.4265 43.0266C43.9276 38.2601 48.6022 35.0532 53.9562 35.0532C59.3102 35.0532 63.9849 38.2601 66.4859 43.0266C63.9849 47.7932 59.3102 51.0001 53.9562 51.0001C48.6022 51.0001 43.9276 47.7932 41.4265 43.0266Z" fill="white"/>
<rect x="15.9333" y="30.5919" width="7.01064" height="25.4933" fill="white"/>
<rect x="50.3492" y="30.5919" width="7.01064" height="25.4933" fill="white"/>
<path d="M138.11 59H131.946V45.476C131.946 43.5747 131.609 42.1793 130.934 41.29C130.29 40.37 129.386 39.91 128.22 39.91C127.024 39.91 125.874 40.3853 124.77 41.336C123.697 42.256 122.93 43.4673 122.47 44.97V59H116.306V45.476C116.306 43.544 115.969 42.1333 115.294 41.244C114.65 40.3547 113.746 39.91 112.58 39.91C111.384 39.91 110.234 40.37 109.13 41.29C108.057 42.21 107.29 43.4213 106.83 44.924V59H100.666V34.896H106.232V39.358C107.152 37.794 108.379 36.598 109.912 35.77C111.446 34.9113 113.209 34.482 115.202 34.482C117.196 34.482 118.744 34.9727 119.848 35.954C120.983 36.9353 121.704 38.1467 122.01 39.588C122.992 37.932 124.234 36.6747 125.736 35.816C127.27 34.9267 128.987 34.482 130.888 34.482C132.391 34.482 133.602 34.758 134.522 35.31C135.473 35.8313 136.209 36.552 136.73 37.472C137.252 38.3613 137.604 39.3733 137.788 40.508C138.003 41.6427 138.11 42.7927 138.11 43.958V59ZM154.609 59.46C152.646 59.46 150.883 59.138 149.319 58.494C147.755 57.8193 146.421 56.8993 145.317 55.734C144.244 54.5687 143.416 53.2347 142.833 51.732C142.25 50.2293 141.959 48.65 141.959 46.994C141.959 45.3073 142.25 43.7127 142.833 42.21C143.416 40.7073 144.244 39.3733 145.317 38.208C146.421 37.0427 147.755 36.138 149.319 35.494C150.883 34.8193 152.646 34.482 154.609 34.482C156.572 34.482 158.32 34.8193 159.853 35.494C161.417 36.138 162.751 37.0427 163.855 38.208C164.959 39.3733 165.787 40.7073 166.339 42.21C166.922 43.7127 167.213 45.3073 167.213 46.994C167.213 48.65 166.922 50.2293 166.339 51.732C165.787 53.2347 164.959 54.5687 163.855 55.734C162.782 56.8993 161.463 57.8193 159.899 58.494C158.335 59.138 156.572 59.46 154.609 59.46ZM148.307 46.994C148.307 48.4047 148.583 49.662 149.135 50.766C149.687 51.8393 150.438 52.6827 151.389 53.296C152.34 53.9093 153.413 54.216 154.609 54.216C155.774 54.216 156.832 53.9093 157.783 53.296C158.734 52.652 159.485 51.7933 160.037 50.72C160.62 49.616 160.911 48.3587 160.911 46.948C160.911 45.568 160.62 44.326 160.037 43.222C159.485 42.118 158.734 41.2593 157.783 40.646C156.832 40.0327 155.774 39.726 154.609 39.726C153.413 39.726 152.34 40.048 151.389 40.692C150.438 41.3053 149.687 42.164 149.135 43.268C148.583 44.3413 148.307 45.5833 148.307 46.994ZM182.597 59.46C180.635 59.46 178.871 59.138 177.307 58.494C175.743 57.8193 174.409 56.8993 173.305 55.734C172.201 54.538 171.343 53.1887 170.729 51.686C170.147 50.1833 169.855 48.604 169.855 46.948C169.855 44.6787 170.361 42.6087 171.373 40.738C172.416 38.8367 173.888 37.3187 175.789 36.184C177.691 35.0493 179.945 34.482 182.551 34.482C185.158 34.482 187.397 35.0493 189.267 36.184C191.138 37.3187 192.533 38.806 193.453 40.646L187.427 42.486C186.906 41.5967 186.216 40.922 185.357 40.462C184.499 39.9713 183.548 39.726 182.505 39.726C181.34 39.726 180.267 40.0327 179.285 40.646C178.335 41.2287 177.583 42.072 177.031 43.176C176.479 44.2493 176.203 45.5067 176.203 46.948C176.203 48.3587 176.479 49.616 177.031 50.72C177.614 51.7933 178.381 52.652 179.331 53.296C180.282 53.9093 181.34 54.216 182.505 54.216C183.241 54.216 183.931 54.0933 184.575 53.848C185.25 53.6027 185.848 53.2653 186.369 52.836C186.891 52.4067 187.274 51.916 187.519 51.364L193.545 53.204C192.993 54.4 192.181 55.4733 191.107 56.424C190.065 57.3747 188.823 58.126 187.381 58.678C185.971 59.1993 184.376 59.46 182.597 59.46ZM219.74 59H213.576V45.476C213.576 43.6053 213.208 42.21 212.472 41.29C211.767 40.37 210.786 39.91 209.528 39.91C208.792 39.91 208.01 40.1247 207.182 40.554C206.354 40.9833 205.603 41.5813 204.928 42.348C204.284 43.084 203.809 43.9427 203.502 44.924V59H197.338V25.42H203.502V39.358C204.392 37.8247 205.603 36.6287 207.136 35.77C208.67 34.9113 210.341 34.482 212.15 34.482C213.714 34.482 214.987 34.758 215.968 35.31C216.95 35.8313 217.716 36.552 218.268 37.472C218.82 38.3613 219.204 39.3733 219.418 40.508C219.633 41.612 219.74 42.762 219.74 43.958V59ZM225.1 59V34.896H231.264V59H225.1ZM225.1 31.538V25.42H231.264V31.538H225.1ZM251.269 59.46C249.398 59.46 247.742 59.046 246.301 58.218C244.89 57.3593 243.786 56.2093 242.989 54.768V68.798H236.825V34.896H242.207V39.036C243.127 37.6253 244.292 36.5213 245.703 35.724C247.113 34.896 248.723 34.482 250.533 34.482C252.158 34.482 253.645 34.804 254.995 35.448C256.375 36.092 257.571 36.9967 258.583 38.162C259.595 39.2967 260.377 40.6153 260.929 42.118C261.511 43.59 261.803 45.1847 261.803 46.902C261.803 49.2327 261.343 51.3487 260.423 53.25C259.533 55.1513 258.291 56.6693 256.697 57.804C255.133 58.908 253.323 59.46 251.269 59.46ZM249.199 54.216C250.149 54.216 251.008 54.0167 251.775 53.618C252.541 53.2193 253.201 52.6827 253.753 52.008C254.335 51.3027 254.765 50.5207 255.041 49.662C255.347 48.7727 255.501 47.8527 255.501 46.902C255.501 45.89 255.332 44.9547 254.995 44.096C254.688 43.2373 254.228 42.486 253.615 41.842C253.001 41.1673 252.281 40.646 251.453 40.278C250.655 39.91 249.781 39.726 248.831 39.726C248.248 39.726 247.65 39.8333 247.037 40.048C246.454 40.232 245.887 40.508 245.335 40.876C244.783 41.244 244.292 41.6733 243.863 42.164C243.464 42.6547 243.173 43.1913 242.989 43.774V49.432C243.357 50.3213 243.847 51.134 244.461 51.87C245.105 52.606 245.841 53.1887 246.669 53.618C247.497 54.0167 248.34 54.216 249.199 54.216ZM277.157 59.46C275.225 59.46 273.477 59.138 271.913 58.494C270.349 57.8193 269.015 56.9147 267.911 55.78C266.807 54.6147 265.948 53.296 265.335 51.824C264.752 50.3213 264.461 48.742 264.461 47.086C264.461 44.786 264.967 42.6853 265.979 40.784C267.022 38.8827 268.494 37.3647 270.395 36.23C272.327 35.0647 274.596 34.482 277.203 34.482C279.84 34.482 282.094 35.0647 283.965 36.23C285.836 37.3647 287.262 38.8827 288.243 40.784C289.255 42.6547 289.761 44.6787 289.761 46.856C289.761 47.224 289.746 47.6073 289.715 48.006C289.684 48.374 289.654 48.6807 289.623 48.926H270.993C271.116 50.1527 271.468 51.226 272.051 52.146C272.664 53.066 273.431 53.7713 274.351 54.262C275.302 54.722 276.314 54.952 277.387 54.952C278.614 54.952 279.764 54.6607 280.837 54.078C281.941 53.4647 282.692 52.6673 283.091 51.686L288.381 53.158C287.798 54.3847 286.955 55.4733 285.851 56.424C284.778 57.3747 283.505 58.126 282.033 58.678C280.561 59.1993 278.936 59.46 277.157 59.46ZM270.855 45.016H283.459C283.336 43.7893 282.984 42.7313 282.401 41.842C281.849 40.922 281.113 40.2167 280.193 39.726C279.273 39.2047 278.246 38.944 277.111 38.944C276.007 38.944 274.995 39.2047 274.075 39.726C273.186 40.2167 272.45 40.922 271.867 41.842C271.315 42.7313 270.978 43.7893 270.855 45.016ZM307.735 57.758C307.214 57.9727 306.585 58.218 305.849 58.494C305.113 58.77 304.316 58.9847 303.457 59.138C302.629 59.322 301.786 59.414 300.927 59.414C299.793 59.414 298.75 59.2147 297.799 58.816C296.849 58.4173 296.082 57.7887 295.499 56.93C294.947 56.0407 294.671 54.8907 294.671 53.48V39.634H291.497V34.896H294.671V27.076H300.835V34.896H305.895V39.634H300.835V51.41C300.866 52.238 301.096 52.836 301.525 53.204C301.955 53.572 302.491 53.756 303.135 53.756C303.779 53.756 304.408 53.6487 305.021 53.434C305.635 53.2193 306.125 53.0353 306.493 52.882L307.735 57.758Z" fill="white"/>
</svg>
